<?xml version="1.0" standalone="no"?>
<!DOCTYPE svg PUBLIC "-//W3C//DTD SVG 20010904//EN"
 "http://www.w3.org/TR/2001/REC-SVG-20010904/DTD/svg10.dtd">
<svg version="1.0" xmlns="http://www.w3.org/2000/svg"
 width="512.000000pt" height="512.000000pt" viewBox="0 0 512.000000 512.000000"
 preserveAspectRatio="xMidYMid meet">

<g transform="translate(0.000000,512.000000) scale(0.100000,-0.100000)"
fill="#21243D" stroke="none">
<path d="M1790 4671 c-72 -23 -125 -57 -182 -118 -88 -95 -118 -191 -118 -385
l0 -118 -570 0 c-545 0 -573 -1 -627 -20 -121 -42 -218 -134 -266 -252 -21
-51 -22 -70 -25 -438 -3 -273 0 -401 8 -440 35 -160 171 -296 328 -329 36 -8
325 -11 922 -11 l870 0 0 55 c0 31 6 71 14 89 28 67 22 66 416 66 394 0 388 1
416 -66 8 -18 14 -58 14 -89 l0 -55 870 0 c597 0 886 3 922 11 116 24 236 117
291 225 44 87 49 140 45 549 -3 363 -4 382 -25 433 -32 80 -97 158 -166 203
-108 70 -95 69 -729 69 l-568 0 0 118 c0 137 -18 233 -57 303 -38 71 -138 162
-210 191 l-58 23 -730 2 c-676 2 -734 1 -785 -16z m1410 -511 l0 -110 -640 0
-640 0 0 110 0 110 640 0 640 0 0 -110z"/>
<path d="M63 2446 c-67 -30 -64 10 -61 -884 3 -803 3 -807 25 -860 48 -118
145 -210 266 -252 56 -20 83 -20 2265 -20 2454 0 2253 -6 2369 69 69 45 134
123 166 203 22 53 22 57 25 860 3 900 6 855 -64 884 -41 17 -60 13 -134 -31
-113 -68 -70 -65 -1047 -65 l-883 0 0 -165 c0 -186 -9 -224 -59 -249 -45 -24
-697 -24 -742 0 -50 25 -59 63 -59 249 l0 165 -883 0 c-978 0 -935 -3 -1047
65 -69 42 -97 48 -137 31z"/>
</g>
</svg>
