<svg width="30" height="30" viewBox="0 0 30 30" fill="none" xmlns="http://www.w3.org/2000/svg">
<g clip-path="url(#clip0_101_14)">
<rect width="30" height="30" rx="3" fill="#21243D"/>
<path d="M15.3921 3.02992C15.3921 3.05807 15.3405 3.43802 15.2748 3.88364C15.209 4.32927 15.1574 4.72799 15.1574 4.77489C15.1574 4.84056 15.2278 4.86871 15.5235 4.91562C16.9598 5.14546 18.6919 5.82094 19.9451 6.65121C20.7149 7.1625 21.203 7.55653 21.8414 8.18978C23.4936 9.82217 24.5779 11.797 25.0848 14.0861C25.1693 14.4895 25.1975 14.5552 25.2773 14.5458C25.5073 14.527 26.9671 14.2784 26.9952 14.255C27.014 14.2409 26.9764 13.9923 26.9154 13.7061C26.0283 9.61109 23.3153 6.13522 19.5602 4.29174C18.3727 3.70539 17.1711 3.30199 16.0492 3.10966C15.8052 3.06745 15.5564 3.02054 15.5001 3.00647C15.439 2.9924 15.3921 3.00178 15.3921 3.02992Z" fill="white"/>
<path d="M6.6803 5.33778C6.225 5.4316 6.01848 5.59109 4.81216 6.78723C4.17381 7.42049 3.573 8.04906 3.48851 8.18509C2.64362 9.47974 2.89709 11.6281 4.23013 14.5223C5.72746 17.759 8.41232 21.0238 11.4962 23.3504C13.3127 24.7201 15.4765 25.8975 17.2696 26.4979C18.7528 26.9904 20.1469 27.1312 21.034 26.8732C21.7005 26.6808 21.846 26.5683 23.1697 25.2548C24.2821 24.1478 24.4135 23.9977 24.5497 23.7069C24.6811 23.4254 24.7046 23.3269 24.7046 23.022C24.7046 22.7171 24.6811 22.6186 24.5497 22.3372C24.4088 22.037 24.2727 21.8869 22.7003 20.3201C21.3156 18.941 20.9542 18.6033 20.743 18.5048C20.3862 18.3312 20.053 18.275 19.7479 18.3312C19.241 18.4298 19.0485 18.5705 17.8751 19.7244C17.2649 20.3248 16.7298 20.8174 16.6875 20.8174C16.5702 20.8174 15.4671 20.2498 15.04 19.9683C13.3784 18.8895 11.4962 17.0554 10.2898 15.3479C9.87679 14.7616 9.68435 14.4379 9.40741 13.8656C9.23374 13.5091 9.1915 13.3825 9.21966 13.2793C9.23843 13.1948 9.63271 12.7633 10.3227 12.0691C11.2849 11.1028 11.4164 10.9527 11.5431 10.6665C11.7919 10.1271 11.7355 9.61109 11.3835 9.07634C11.2943 8.9403 10.4964 8.11003 9.60925 7.22817C8.16355 5.7881 7.96641 5.60985 7.69417 5.4832C7.36091 5.3284 6.98071 5.2768 6.6803 5.33778Z" fill="white"/>
<path d="M15.1434 7.91302C15.0776 8.25075 14.9087 9.60639 14.9274 9.62515C14.9368 9.63923 15.1152 9.68144 15.3217 9.72366C17.7297 10.2209 19.6494 12.0925 20.2268 14.5036C20.2784 14.7053 20.3206 14.8788 20.33 14.8835C20.3535 14.9023 22.1043 14.5927 22.1278 14.5692C22.1606 14.5411 22.0808 14.1424 21.9541 13.7108C21.1092 10.7228 18.5933 8.4337 15.5236 7.85673L15.1668 7.79106L15.1434 7.91302Z" fill="white"/>
</g>
<defs>
<clipPath id="clip0_101_14">
<rect width="30" height="30" rx="4" fill="white"/>
</clipPath>
</defs>
</svg>
