<?xml version="1.0" standalone="no"?>
<!DOCTYPE svg PUBLIC "-//W3C//DTD SVG 20010904//EN"
 "http://www.w3.org/TR/2001/REC-SVG-20010904/DTD/svg10.dtd">
<svg version="1.0" xmlns="http://www.w3.org/2000/svg"
 width="1000.000000pt" height="1600.000000pt" viewBox="0 0 1000.000000 1600.000000"
 preserveAspectRatio="xMidYMid meet">

<g transform="translate(0.000000,1600.000000) scale(0.100000,-0.100000)"
fill="#00A8CC" stroke="none">
<path d="M2800 14981 c-192 -42 -342 -120 -480 -248 -366 -339 -423 -896 -132
-1313 29 -42 992 -1013 2721 -2743 l2676 -2677 -2687 -2688 c-2886 -2887
-2743 -2739 -2817 -2917 -63 -150 -75 -213 -75 -395 0 -141 3 -177 23 -250 77
-288 270 -521 536 -650 137 -67 239 -92 400 -97 208 -8 385 39 565 148 79 48
313 280 3143 3108 1682 1681 3080 3083 3106 3116 287 357 292 863 12 1231 -73
97 -6154 6177 -6224 6224 -77 51 -224 117 -317 141 -121 31 -332 36 -450 10z"/>
</g>
</svg>
