<?xml version="1.0" standalone="no"?>
<!DOCTYPE svg PUBLIC "-//W3C//DTD SVG 20010904//EN"
 "http://www.w3.org/TR/2001/REC-SVG-20010904/DTD/svg10.dtd">
<svg version="1.0" xmlns="http://www.w3.org/2000/svg"
 width="1600.000000pt" height="1600.000000pt" viewBox="0 0 1600.000000 1600.000000"
 preserveAspectRatio="xMidYMid meet">

<g transform="translate(0.000000,1600.000000) scale(0.100000,-0.100000)"
fill="#8695A4" stroke="none">
<path d="M7665 15994 c-33 -2 -132 -8 -220 -14 -2304 -156 -4448 -1321 -5840
-3174 -858 -1143 -1397 -2500 -1555 -3919 -37 -329 -45 -488 -45 -887 0 -399
8 -558 45 -887 235 -2102 1290 -4021 2940 -5348 1224 -983 2694 -1580 4265
-1729 553 -53 1174 -44 1725 25 2318 289 4381 1562 5677 3504 1175 1762 1602
3922 1187 6005 -203 1018 -609 1998 -1187 2865 -689 1033 -1599 1884 -2677
2505 -200 115 -571 302 -773 389 -837 362 -1667 570 -2577 646 -173 15 -824
28 -965 19z m-1432 -5281 c48 -17 113 -46 145 -64 42 -25 258 -234 832 -806
426 -425 780 -773 785 -773 5 0 356 345 780 768 568 566 785 776 827 801 415
242 915 73 1091 -369 52 -131 63 -315 27 -453 -21 -85 -75 -199 -122 -261 -17
-23 -371 -382 -787 -798 l-756 -758 781 -782 781 -783 46 -95 c60 -125 78
-205 78 -338 0 -214 -65 -367 -221 -522 -77 -78 -111 -104 -180 -138 -115 -57
-218 -82 -342 -82 -129 0 -221 21 -338 77 l-95 46 -783 781 -782 781 -763
-761 c-419 -419 -782 -775 -807 -791 -141 -94 -270 -134 -435 -134 -160 0
-282 37 -410 122 -221 148 -347 402 -332 669 6 111 32 202 90 315 39 77 66
106 814 855 425 427 773 780 773 785 0 6 -340 350 -756 765 -418 417 -773 781
-796 813 -164 239 -171 554 -17 814 43 72 169 198 242 242 139 82 255 112 422
107 102 -3 133 -7 208 -33z"/>
</g>
</svg>
