<?xml version="1.0" standalone="no"?>
<!DOCTYPE svg PUBLIC "-//W3C//DTD SVG 20010904//EN"
 "http://www.w3.org/TR/2001/REC-SVG-20010904/DTD/svg10.dtd">
<svg version="1.0" xmlns="http://www.w3.org/2000/svg"
 width="512.000000pt" height="512.000000pt" viewBox="0 0 512.000000 512.000000"
 preserveAspectRatio="xMidYMid meet">

<g transform="translate(0.000000,512.000000) scale(0.100000,-0.100000)"
fill="#21243D" stroke="none">
<path d="M681 4624 c-169 -45 -301 -180 -346 -351 -23 -86 -23 -3340 0 -3426
45 -173 178 -307 350 -352 52 -13 272 -15 1830 -15 1213 0 1790 3 1831 11 212
38 405 231 443 443 7 40 11 432 11 1191 0 1244 3 1186 -61 1306 -38 70 -126
157 -197 193 -93 47 -150 56 -354 56 l-188 0 0 268 c0 205 -3 281 -15 325 -45
173 -178 307 -350 352 -87 22 -2870 22 -2954 -1z m2605 -1130 c53 -39 69 -71
69 -134 0 -63 -16 -95 -69 -134 -27 -21 -37 -21 -864 -24 -569 -2 -849 0 -874
8 -101 29 -140 168 -71 251 52 61 10 59 935 56 838 -2 847 -2 874 -23z m1120
-160 c15 -11 37 -33 48 -48 21 -27 21 -34 24 -1149 2 -864 0 -1132 -10 -1167
-24 -89 -133 -170 -228 -170 -92 0 -202 80 -228 166 -9 31 -12 323 -12 1218
l0 1177 189 -3 c173 -3 192 -5 217 -24z m-1120 -640 c53 -39 69 -71 69 -134 0
-63 -16 -95 -69 -134 -27 -21 -35 -21 -1104 -24 -737 -2 -1089 0 -1114 8 -101
29 -140 168 -71 251 52 62 -12 59 1175 56 1080 -2 1087 -2 1114 -23z m0 -800
c53 -39 69 -71 69 -134 0 -63 -16 -95 -69 -134 -27 -21 -35 -21 -1104 -24
-737 -2 -1089 0 -1114 8 -101 29 -140 168 -71 251 52 62 -12 59 1175 56 1080
-2 1087 -2 1114 -23z"/>
</g>
</svg>
