<?xml version="1.0" standalone="no"?>
<!DOCTYPE svg PUBLIC "-//W3C//DTD SVG 20010904//EN"
 "http://www.w3.org/TR/2001/REC-SVG-20010904/DTD/svg10.dtd">
<svg version="1.0" xmlns="http://www.w3.org/2000/svg"
 width="1800.000000pt" height="1600.000000pt" viewBox="0 0 1800.000000 1600.000000"
 preserveAspectRatio="xMidYMid meet">

<g transform="translate(0.000000,1600.000000) scale(0.100000,-0.100000)"
fill="#21243D" stroke="none">
<path d="M1785 14988 c-216 -22 -451 -90 -660 -192 -625 -306 -1040 -901
-1115 -1598 -14 -139 -14 -10243 1 -10394 23 -235 88 -463 193 -679 307 -627
908 -1044 1605 -1115 146 -14 14238 -14 14382 1 249 25 469 87 684 193 629
309 1044 908 1115 1605 14 144 14 10238 0 10382 -97 956 -845 1704 -1799 1799
-134 13 -14276 11 -14406 -2z m3906 -2998 c455 -45 869 -237 1198 -554 623
-602 787 -1534 406 -2313 -306 -625 -909 -1044 -1604 -1113 -426 -42 -876 62
-1239 288 -877 545 -1200 1658 -748 2577 102 207 200 347 356 508 428 444
1027 667 1631 607z m9924 -1005 c97 -25 164 -64 235 -134 158 -160 193 -377
92 -581 -35 -71 -141 -177 -212 -212 -125 -62 23 -58 -2256 -56 l-2079 3 -71
28 c-38 15 -96 48 -127 73 -193 151 -248 400 -140 624 34 70 143 179 213 213
122 59 -18 56 2225 56 1819 1 2068 -1 2120 -14z m0 -2000 c97 -25 164 -64 235
-134 158 -160 193 -377 92 -581 -35 -71 -141 -177 -212 -212 -125 -62 23 -58
-2256 -56 l-2079 3 -64 24 c-130 49 -257 176 -300 302 -97 281 61 575 351 653
45 13 364 15 2113 15 1819 1 2068 -1 2120 -14z m-8767 -2008 c571 -93 1028
-322 1417 -712 451 -450 704 -1026 731 -1665 7 -162 -4 -229 -54 -330 -35 -71
-141 -177 -212 -212 -126 -63 122 -58 -3256 -56 l-3079 3 -71 28 c-135 54
-250 172 -296 304 -21 61 -23 84 -22 233 4 418 130 855 356 1225 206 338 513
644 848 845 295 178 653 302 980 339 52 6 109 13 125 15 17 2 570 3 1230 2
1070 -2 1211 -4 1303 -19z m8767 8 c97 -25 164 -64 235 -134 158 -160 193
-377 92 -581 -35 -71 -141 -177 -212 -212 -125 -62 23 -58 -2256 -56 l-2079 3
-71 28 c-133 53 -249 171 -294 299 -96 280 62 574 352 652 45 13 364 15 2113
15 1819 1 2068 -1 2120 -14z"/>
</g>
</svg>
