<?xml version="1.0" standalone="no"?>
<!DOCTYPE svg PUBLIC "-//W3C//DTD SVG 20010904//EN"
 "http://www.w3.org/TR/2001/REC-SVG-20010904/DTD/svg10.dtd">
<svg version="1.0" xmlns="http://www.w3.org/2000/svg"
 width="512.000000pt" height="512.000000pt" viewBox="0 0 512.000000 512.000000"
 preserveAspectRatio="xMidYMid meet">

<g transform="translate(0.000000,512.000000) scale(0.100000,-0.100000)"
fill="#000000" stroke="none">
<path d="M190 4788 c-85 -23 -160 -104 -180 -193 -8 -36 -10 -622 -8 -2050 l3
-2000 30 -59 c37 -73 102 -132 169 -151 45 -13 343 -15 2381 -13 l2330 3 46
27 c58 34 94 76 128 148 l26 55 3 1670 c2 1652 2 1671 -18 1737 -15 51 -31 77
-65 111 -88 89 45 81 -1557 87 l-1418 5 -27 28 -28 27 -5 193 c-6 219 -12 241
-88 314 -77 76 -46 73 -916 72 -455 -1 -785 -5 -806 -11z m1617 -181 l28 -27
5 -193 c5 -163 8 -198 25 -232 25 -50 80 -105 130 -130 39 -20 73 -20 1462
-25 l1422 -5 28 -21 c15 -11 33 -36 40 -55 9 -26 12 -430 12 -1674 1 -1576 0
-1642 -18 -1681 -10 -22 -31 -50 -46 -62 l-28 -22 -2308 0 -2307 0 -33 27
c-63 54 -59 -93 -59 2070 0 1961 0 1978 20 2011 11 18 30 37 43 42 13 5 345 8
789 7 l768 -2 27 -28z"/>
<path d="M1329 3062 c-37 -19 -51 -53 -37 -92 5 -14 68 -85 141 -157 l131
-133 -142 -143 c-131 -132 -142 -146 -142 -180 0 -24 7 -44 20 -57 13 -13 33
-20 57 -20 34 0 48 11 180 142 l143 142 133 -131 c72 -73 143 -136 157 -141
59 -22 120 39 98 98 -5 14 -68 85 -141 158 l-132 132 132 133 c73 72 136 143
141 157 22 59 -39 120 -98 98 -14 -5 -85 -68 -157 -141 l-133 -132 -132 132
c-73 73 -145 136 -159 142 -20 7 -35 6 -60 -7z"/>
<path d="M3089 3062 c-37 -19 -51 -53 -37 -92 5 -14 68 -85 141 -157 l131
-133 -142 -143 c-131 -132 -142 -146 -142 -180 0 -24 7 -44 20 -57 13 -13 33
-20 57 -20 34 0 48 11 180 142 l143 142 133 -131 c72 -73 143 -136 157 -141
59 -22 120 39 98 98 -5 14 -68 85 -141 157 l-131 133 142 143 c124 125 142
148 142 176 0 43 -38 81 -81 81 -28 0 -51 -18 -176 -142 l-143 -142 -133 131
c-72 73 -144 136 -158 142 -20 7 -35 6 -60 -7z"/>
<path d="M2430 1780 c-217 -30 -436 -140 -541 -272 -74 -94 -82 -144 -27 -182
35 -25 67 -20 97 16 86 104 160 167 242 206 127 60 209 77 369 76 234 -2 387
-60 524 -198 69 -69 84 -80 114 -80 43 0 72 32 72 79 0 87 -192 241 -380 307
-133 46 -334 67 -470 48z"/>
</g>
</svg>
