<svg width="30" height="30" viewBox="0 0 30 30" fill="none" xmlns="http://www.w3.org/2000/svg">
<g clip-path="url(#clip0_101_21)">
<rect width="30" height="30" rx="3" fill="#21243D"/>
<path d="M14.4512 3.00667C10.1823 3.25293 6.48511 5.55618 4.45967 9.23074C3.52448 10.9208 3.05446 12.6639 3.006 14.6146C2.97208 15.9715 3.07869 16.942 3.40818 18.1202C4.5905 22.4225 7.96786 25.6818 12.3192 26.7103C13.2689 26.9372 13.8407 27 15.0327 27C16.4912 27 17.4118 26.86 18.7153 26.4447C19.6069 26.1598 20.7844 25.6094 21.298 25.2424C22.0539 24.6919 21.8116 23.451 20.9007 23.2047C20.5566 23.113 20.3095 23.1757 19.5633 23.562C18.5021 24.1125 17.6687 24.3877 16.4863 24.5954C15.8128 24.7064 14.2041 24.7064 13.5306 24.5954C11.4034 24.2284 9.6638 23.3447 8.17137 21.8624C4.44513 18.1637 4.37245 12.181 8.00177 8.3954C10.6038 5.68172 14.4803 4.71117 18.0369 5.87969C19.5294 6.37221 20.8425 7.19307 21.9376 8.31814C22.7468 9.15348 23.2459 9.85846 23.7305 10.858C24.7335 12.9343 24.9612 15.252 24.3798 17.4925C24.2005 18.1975 24.0842 18.4534 23.8225 18.7431C22.9358 19.7088 21.3077 19.3418 20.9152 18.0864C20.828 17.8063 20.8231 17.5939 20.8231 14.0255C20.8231 11.2056 20.8086 10.2061 20.765 10.0564C20.639 9.64117 20.106 9.25488 19.6602 9.25488C19.1029 9.25488 18.4973 9.815 18.4973 10.3317C18.4973 10.3944 18.41 10.3558 18.1532 10.1916C16.7189 9.26454 14.8873 9.01346 13.2641 9.52529C12.3434 9.81017 11.6214 10.2544 10.9091 10.9642C10.1193 11.7464 9.63957 12.5818 9.34884 13.6634C9.2277 14.1173 9.21801 14.2235 9.22286 15.0734C9.22286 15.9039 9.23739 16.0342 9.34884 16.4495C10.0805 19.1487 12.5081 20.9546 15.2265 20.8242C16.5542 20.7614 17.7123 20.3172 18.7686 19.4674L18.9188 19.3467L19.1029 19.6557C19.51 20.351 20.3192 21.0318 21.0799 21.3264C22.0587 21.7079 23.149 21.6982 24.1278 21.3071C25.0194 20.9449 25.8044 20.1917 26.2211 19.2887C26.4973 18.6948 26.7929 17.5553 26.9382 16.5461C27.0206 15.957 27.0206 14.1076 26.9382 13.5282C26.599 11.1718 25.7704 9.22108 24.3555 7.47313C22.4318 5.08297 19.5439 3.47505 16.5348 3.10325C15.9097 3.02599 14.9212 2.98253 14.4512 3.00667ZM15.6481 11.6402C16.1423 11.7368 16.496 11.8768 16.9079 12.1472C17.3973 12.4659 17.8576 12.9777 18.1048 13.4703C18.4003 14.069 18.473 14.3877 18.4682 15.0975C18.4633 15.6142 18.444 15.759 18.3374 16.0874C18.1532 16.6426 17.9013 17.0434 17.4555 17.4877C17.0097 17.9319 16.6075 18.183 16.0502 18.3665C15.7207 18.4727 15.5754 18.492 15.0569 18.4968C14.3446 18.5017 14.0248 18.4292 13.424 18.1347C12.7213 17.787 12.0333 17.0338 11.7619 16.3143C11.3888 15.3293 11.476 14.1945 11.9897 13.3109C12.2174 12.9246 12.8522 12.2824 13.2301 12.0603C13.9667 11.6306 14.8195 11.4809 15.6481 11.6402Z" fill="white"/>
</g>
<defs>
<clipPath id="clip0_101_21">
<rect width="30" height="30" rx="4" fill="white"/>
</clipPath>
</defs>
</svg>
