<?xml version="1.0" standalone="no"?>
<!DOCTYPE svg PUBLIC "-//W3C//DTD SVG 20010904//EN"
 "http://www.w3.org/TR/2001/REC-SVG-20010904/DTD/svg10.dtd">
<svg version="1.0" xmlns="http://www.w3.org/2000/svg"
 width="1800.000000pt" height="1600.000000pt" viewBox="0 0 1800.000000 1600.000000"
 preserveAspectRatio="xMidYMid meet">

<g transform="translate(0.000000,1600.000000) scale(0.100000,-0.100000)"
fill="#21243D" stroke="none">
<path d="M8830 15990 c-155 -20 -326 -89 -427 -172 -203 -169 -8135 -7095
-8159 -7125 -48 -59 -109 -153 -139 -213 -133 -264 -138 -621 -12 -893 120
-260 359 -463 628 -536 131 -36 229 -41 761 -41 l518 0 3 -2967 c2 -2817 3
-2972 21 -3043 63 -265 164 -449 345 -631 185 -184 382 -290 641 -346 80 -17
169 -18 1490 -18 1321 0 1410 1 1490 18 261 56 456 161 641 346 180 181 283
369 345 631 17 70 18 186 24 1615 l5 1540 27 96 c99 362 371 629 734 721 l89
23 1150 0 1150 0 97 -27 c355 -98 619 -362 716 -716 l27 -97 5 -1540 c6 -1429
7 -1545 24 -1615 62 -263 164 -449 345 -631 185 -184 382 -290 641 -346 80
-17 169 -18 1490 -18 1321 0 1410 1 1490 18 261 56 456 161 641 346 181 182
288 378 344 631 15 68 32 531 39 1055 3 256 -15 4449 -20 4682 l-7 272 574 3
574 4 95 26 c180 49 322 129 454 257 134 130 220 272 270 444 29 101 51 328
41 422 -22 205 -110 368 -297 551 -106 103 -7984 7031 -8067 7094 -97 73 -239
134 -385 166 -82 18 -321 26 -416 14z"/>
</g>
</svg>
