<?xml version="1.0" standalone="no"?>
<!DOCTYPE svg PUBLIC "-//W3C//DTD SVG 20010904//EN"
 "http://www.w3.org/TR/2001/REC-SVG-20010904/DTD/svg10.dtd">
<svg version="1.0" xmlns="http://www.w3.org/2000/svg"
 width="512.000000pt" height="512.000000pt" viewBox="0 0 512.000000 512.000000"
 preserveAspectRatio="xMidYMid meet">

<g transform="translate(0.000000,512.000000) scale(0.100000,-0.100000)"
fill="#00A8CC" stroke="none">
<path d="M1845 4198 c-56 -44 -55 -32 -55 -743 0 -723 -1 -706 62 -745 32 -19
49 -20 708 -20 659 0 676 1 708 20 63 39 62 22 62 745 0 711 1 699 -55 743
l-28 22 -687 0 -687 0 -28 -22z m768 -499 c31 -16 296 -279 313 -311 21 -40
18 -101 -7 -132 -39 -50 -104 -69 -152 -45 -12 6 -64 52 -114 102 l-93 91 -97
-96 c-105 -103 -136 -118 -196 -98 -65 21 -100 87 -82 157 7 30 257 291 310
324 34 21 85 25 118 8z"/>
<path d="M63 2410 c-65 -40 -63 -10 -63 -745 0 -725 -2 -698 56 -744 26 -21
32 -21 709 -21 l682 0 34 23 c61 41 60 32 57 761 -3 630 -4 662 -22 689 -40
59 -14 57 -748 57 -650 0 -674 -1 -705 -20z m904 -386 c36 -23 56 -71 50 -122
-4 -41 -13 -53 -101 -141 l-95 -95 99 -102 c99 -101 100 -101 100 -150 -1 -27
-6 -59 -14 -72 -30 -55 -108 -77 -164 -48 -15 8 -93 81 -173 163 -156 158
-171 182 -150 246 13 37 291 320 331 336 30 12 86 5 117 -15z"/>
<path d="M1852 2410 c-63 -39 -62 -22 -62 -745 0 -711 -1 -699 55 -743 l28
-22 687 0 687 0 28 22 c56 44 55 32 55 743 0 723 1 706 -62 745 -32 19 -49 20
-708 20 -659 0 -676 -1 -708 -20z m495 -501 c15 -5 70 -51 120 -102 l93 -91
97 96 c105 103 136 118 196 98 65 -21 100 -87 82 -157 -7 -31 -272 -305 -317
-329 -15 -8 -41 -14 -58 -14 -17 0 -43 6 -58 14 -45 24 -310 298 -317 329 -17
66 11 127 70 153 37 16 56 17 92 3z"/>
<path d="M3649 2415 c-14 -8 -35 -27 -45 -42 -18 -27 -19 -60 -22 -689 -3
-729 -4 -720 57 -761 l34 -23 682 0 c677 0 683 0 709 21 58 46 56 19 56 744 0
735 2 705 -63 745 -31 19 -55 20 -707 20 -563 -1 -679 -3 -701 -15z m624 -379
c18 -7 98 -81 178 -162 210 -214 210 -209 -14 -431 -162 -161 -185 -175 -250
-153 -49 16 -78 51 -84 103 -7 59 9 85 111 187 l86 85 -96 96 c-92 92 -97 100
-101 146 -6 60 25 112 77 130 46 16 55 16 93 -1z"/>
</g>
</svg>
