<svg width="30" height="30" viewBox="0 0 30 30" fill="none" xmlns="http://www.w3.org/2000/svg">
<path d="M14.3706 0.0100964C12.1857 0.114628 10.1925 0.627609 8.2904 1.57807C5.40431 3.01829 3.02183 5.39542 1.58073 8.27392C0.778818 9.87287 0.286827 11.5318 0.0873188 13.2973C0.0137139 13.9457 -0.00178193 14.24 0.000155041 15.0278C0.00209201 15.8331 0.0233987 16.2029 0.106689 16.8765C0.590932 20.7752 2.6112 24.3389 5.72197 26.7896C8.7514 29.1745 12.5692 30.2953 16.4334 29.9333C20.9292 29.5113 25.0084 27.0587 27.5265 23.2646C28.679 21.5282 29.4499 19.575 29.7986 17.5114C29.9516 16.6016 30 15.9861 30 14.9988C30 14.2439 29.9845 13.9264 29.9128 13.2953C29.4305 9.0192 27.1178 5.15345 23.5615 2.67372C21.0473 0.921847 17.9946 -0.0228118 14.9323 0.000417536C14.6882 0.00235331 14.4345 0.00622486 14.3706 0.0100964ZM21.4211 9.06566C21.7272 9.14502 21.886 9.31924 21.9344 9.62509C21.9926 9.99289 21.9403 10.5736 21.6904 12.3371C21.334 14.8652 20.3713 20.5855 20.1815 21.3133C20.0188 21.9405 19.7844 22.3064 19.4435 22.4651C19.335 22.5174 19.3157 22.5193 19.0677 22.5174C18.845 22.5154 18.781 22.5077 18.6397 22.4651C18.3026 22.3625 18.014 22.2057 17.4988 21.8418C17.3225 21.7179 16.7124 21.3036 16.1429 20.9203C13.7992 19.3427 13.3769 19.0562 13.2413 18.9536C13.0495 18.8065 12.881 18.6187 12.8055 18.4658C12.7513 18.3554 12.7435 18.3187 12.7435 18.1832C12.7435 18.0496 12.7513 18.0109 12.8055 17.8967C12.8404 17.825 12.9081 17.7128 12.9585 17.645C13.0922 17.4689 13.6965 16.8804 14.8354 15.8138C16.7279 14.0445 17.6576 13.1366 17.8765 12.8462C17.9636 12.7301 17.9675 12.7204 17.9598 12.6197C17.952 12.5326 17.9404 12.5055 17.8881 12.4591C17.8377 12.4145 17.8106 12.4049 17.7254 12.4049C17.6692 12.4049 17.5898 12.4223 17.5472 12.4416C17.3264 12.5423 15.6877 13.6205 12.6176 15.686C11.0022 16.772 10.8472 16.8707 10.5373 17.0043C10.1944 17.1514 10.0046 17.192 9.66372 17.194C9.34993 17.194 9.21821 17.1746 8.7146 17.0585C8.05215 16.9036 6.59361 16.4526 6.18491 16.2764C5.83045 16.1235 5.66387 15.9473 5.66387 15.7305C5.66387 15.4479 5.99896 15.1672 6.67303 14.8865C6.77375 14.8439 7.61827 14.48 8.54996 14.0735C13.342 11.9925 15.0582 11.2608 17.3632 10.32C19.3931 9.48959 20.3771 9.13341 20.8691 9.05017C20.9931 9.02888 21.3146 9.03855 21.4211 9.06566Z" fill="#21243D"/>
</svg>
