<?xml version="1.0" standalone="no"?>
<!DOCTYPE svg PUBLIC "-//W3C//DTD SVG 20010904//EN"
 "http://www.w3.org/TR/2001/REC-SVG-20010904/DTD/svg10.dtd">
<svg version="1.0" xmlns="http://www.w3.org/2000/svg"
 width="1600.000000pt" height="1600.000000pt" viewBox="0 0 1600.000000 1600.000000"
 preserveAspectRatio="xMidYMid meet">

<g transform="translate(0.000000,1600.000000) scale(0.100000,-0.100000)"
fill="#098EAB" stroke="none">
<path d="M7595 14989 c-1355 -77 -2674 -555 -3760 -1364 -314 -233 -544 -435
-835 -731 -705 -718 -1220 -1529 -1568 -2471 -771 -2083 -498 -4439 731 -6288
506 -761 1191 -1449 1947 -1955 1445 -966 3185 -1357 4919 -1104 1441 210
2818 890 3839 1898 165 162 215 227 277 357 74 159 90 235 89 434 -1 155 -3
178 -28 260 -55 183 -131 311 -260 441 -135 134 -279 215 -472 265 -74 19
-114 23 -234 22 -124 0 -159 -4 -245 -27 -198 -52 -319 -126 -517 -315 -398
-378 -763 -638 -1223 -871 -568 -288 -1156 -456 -1830 -522 -167 -16 -692 -16
-855 0 -477 48 -903 143 -1310 294 -1184 440 -2166 1320 -2731 2448 -274 547
-436 1103 -506 1731 -25 228 -25 806 0 1024 38 325 97 622 182 912 510 1732
1959 3080 3719 3458 352 75 602 104 966 112 400 8 723 -19 1090 -92 776 -156
1517 -499 2126 -986 200 -160 271 -226 637 -589 l328 -325 -863 -5 -863 -5
-96 -27 c-363 -99 -630 -372 -721 -734 -33 -133 -31 -351 5 -486 94 -352 360
-618 716 -717 l96 -26 2155 0 2155 0 99 27 c353 98 616 362 714 716 l27 97 0
2155 0 2155 -27 97 c-98 355 -364 622 -714 715 -85 23 -120 26 -249 27 -123 0
-166 -4 -239 -22 -362 -91 -635 -358 -734 -721 l-27 -96 -3 -873 -3 -873 -352
347 c-381 376 -554 534 -772 709 -1144 916 -2521 1442 -3995 1525 -200 11
-579 11 -785 -1z"/>
</g>
</svg>
