<?xml version="1.0" standalone="no"?>
<!DOCTYPE svg PUBLIC "-//W3C//DTD SVG 20010904//EN"
 "http://www.w3.org/TR/2001/REC-SVG-20010904/DTD/svg10.dtd">
<svg version="1.0" xmlns="http://www.w3.org/2000/svg"
 width="512.000000pt" height="512.000000pt" viewBox="0 0 512.000000 512.000000"
 preserveAspectRatio="xMidYMid meet">

<g transform="translate(0.000000,512.000000) scale(0.100000,-0.100000)"
fill="#fff" stroke="none">
<path d="M465 5105 c-177 -39 -339 -170 -412 -335 -53 -117 -54 -138 -51 -864
l3 -671 27 -74 c65 -178 204 -315 380 -372 l73 -24 695 0 695 0 73 24 c179 59
324 204 383 383 l24 73 0 695 0 695 -24 73 c-57 176 -194 315 -372 380 l-74
27 -680 2 c-536 1 -693 -1 -740 -12z m1380 -404 c48 -22 79 -54 100 -103 23
-56 23 -1260 0 -1316 -21 -49 -52 -81 -100 -103 -38 -17 -79 -19 -663 -19
-540 0 -628 2 -660 15 -49 21 -81 52 -103 100 -17 38 -19 79 -19 663 0 540 2
628 15 660 21 49 52 81 100 103 38 17 78 19 665 19 587 0 627 -2 665 -19z"/>
<path d="M3230 5104 c-221 -47 -408 -236 -455 -459 -22 -103 -22 -1307 0
-1410 47 -225 235 -413 460 -460 103 -22 1307 -22 1410 0 225 47 413 235 460
460 22 103 22 1307 0 1410 -47 225 -235 413 -460 460 -100 21 -1317 21 -1415
-1z m1393 -414 c21 -14 50 -43 65 -64 l27 -39 0 -647 0 -647 -27 -39 c-15 -21
-44 -50 -65 -64 l-37 -25 -646 0 -647 0 -39 27 c-21 15 -50 44 -64 65 l-25 37
-3 623 c-2 409 1 637 8 662 12 47 80 117 124 130 18 6 300 9 662 8 l630 -2 37
-25z"/>
<path d="M465 2345 c-177 -39 -339 -170 -412 -335 -53 -117 -54 -138 -51 -864
l3 -671 27 -74 c65 -178 204 -315 380 -372 l73 -24 695 0 695 0 73 24 c179 59
324 204 383 383 l24 73 0 695 0 695 -24 73 c-57 176 -194 315 -372 380 l-74
27 -680 2 c-536 1 -693 -1 -740 -12z m1380 -404 c48 -22 79 -54 100 -103 23
-56 23 -1260 0 -1316 -21 -49 -52 -81 -100 -103 -38 -17 -79 -19 -663 -19
-540 0 -628 2 -660 15 -49 21 -81 52 -103 100 -17 38 -19 79 -19 663 0 540 2
628 15 660 21 49 52 81 100 103 38 17 78 19 665 19 587 0 627 -2 665 -19z"/>
<path d="M3230 2344 c-221 -47 -408 -236 -455 -459 -22 -103 -22 -1307 0
-1410 47 -225 235 -413 460 -460 103 -22 1307 -22 1410 0 225 47 413 235 460
460 22 103 22 1307 0 1410 -47 225 -235 413 -460 460 -100 21 -1317 21 -1415
-1z m1393 -414 c21 -14 50 -43 65 -64 l27 -39 0 -647 0 -647 -27 -39 c-15 -21
-44 -50 -65 -64 l-37 -25 -646 0 -647 0 -39 27 c-21 15 -50 44 -64 65 l-25 37
-3 623 c-2 409 1 637 8 662 12 47 80 117 124 130 18 6 300 9 662 8 l630 -2 37
-25z"/>
</g>
</svg>
