<?xml version="1.0" standalone="no"?>
<!DOCTYPE svg PUBLIC "-//W3C//DTD SVG 20010904//EN"
 "http://www.w3.org/TR/2001/REC-SVG-20010904/DTD/svg10.dtd">
<svg version="1.0" xmlns="http://www.w3.org/2000/svg"
 width="1600.000000pt" height="1600.000000pt" viewBox="0 0 1600.000000 1600.000000"
 preserveAspectRatio="xMidYMid meet">

<g transform="translate(0.000000,1600.000000) scale(0.100000,-0.100000)"
fill="#fff" stroke="none">
<path d="M1095 14484 c-295 -64 -520 -292 -580 -589 -14 -71 -15 -180 -12
-930 3 -781 4 -855 21 -910 78 -262 276 -459 536 -532 61 -17 124 -18 940 -18
816 0 879 1 940 18 262 74 463 275 537 537 17 61 18 124 18 940 0 816 -1 879
-18 940 -60 213 -209 393 -402 485 -153 73 -94 69 -1050 71 -735 2 -870 0
-930 -12z"/>
<path d="M5834 13985 c-167 -30 -305 -89 -433 -185 -188 -142 -315 -335 -373
-566 -33 -133 -31 -351 5 -486 94 -352 360 -618 716 -717 l96 -26 4655 0 4655
0 99 27 c353 98 619 365 713 716 23 85 26 117 26 252 0 135 -3 167 -26 252
-94 351 -360 618 -713 716 l-99 27 -4625 2 c-3729 1 -4639 -1 -4696 -12z"/>
<path d="M1095 9484 c-295 -64 -520 -292 -580 -589 -14 -71 -15 -180 -12 -930
3 -781 4 -855 21 -910 78 -262 276 -459 536 -532 61 -17 124 -18 940 -18 816
0 879 1 940 18 262 74 463 275 537 537 17 61 18 124 18 940 0 816 -1 879 -18
940 -60 213 -209 393 -402 485 -153 73 -94 69 -1050 71 -735 2 -870 0 -930
-12z"/>
<path d="M5834 8985 c-167 -30 -305 -89 -433 -185 -188 -142 -315 -335 -373
-566 -33 -133 -31 -351 5 -486 94 -352 360 -618 716 -717 l96 -26 4655 0 4655
0 99 27 c353 98 619 365 713 716 23 85 26 117 26 252 0 135 -3 167 -26 252
-94 351 -360 618 -713 716 l-99 27 -4625 2 c-3729 1 -4639 -1 -4696 -12z"/>
<path d="M1095 4484 c-295 -64 -520 -292 -580 -589 -14 -71 -15 -180 -12 -930
3 -781 4 -855 21 -910 78 -262 276 -459 536 -532 61 -17 124 -18 940 -18 816
0 879 1 940 18 262 74 463 275 537 537 17 61 18 124 18 940 0 816 -1 879 -18
940 -60 213 -209 393 -402 485 -153 73 -94 69 -1050 71 -735 2 -870 0 -930
-12z"/>
<path d="M5834 3985 c-167 -30 -305 -89 -433 -185 -188 -142 -315 -335 -373
-566 -33 -133 -31 -351 5 -486 94 -352 360 -618 716 -717 l96 -26 4655 0 4655
0 99 27 c353 98 619 365 713 716 23 85 26 117 26 252 0 135 -3 167 -26 252
-94 351 -360 618 -713 716 l-99 27 -4625 2 c-3729 1 -4639 -1 -4696 -12z"/>
</g>
</svg>
